solid OpenSCAD_Model
  facet normal 0 0 1
    outer loop
      vertex 21.4 6 14.9
      vertex 4.28626e-16 3.5 14.9
      vertex 21.4 3.5 14.9
    endloop
  endfacet
  facet normal -0 0 1
    outer loop
      vertex -6 6 14.9
      vertex 4.28626e-16 3.5 14.9
      vertex 21.4 6 14.9
    endloop
  endfacet
  facet normal 0 0 1
    outer loop
      vertex -21.4 3.5 14.9
      vertex -6 6 14.9
      vertex -21.4 6 14.9
    endloop
  endfacet
  facet normal 0 0 1
    outer loop
      vertex -6 6 14.9
      vertex -21.4 3.5 14.9
      vertex 4.28626e-16 3.5 14.9
    endloop
  endfacet
  facet normal -0 0 1
    outer loop
      vertex -21.4 -3.5 14.9
      vertex -6 -6 14.9
      vertex -3.5 -3.5 14.9
    endloop
  endfacet
  facet normal 0 0 1
    outer loop
      vertex -6 -6 14.9
      vertex -21.4 -3.5 14.9
      vertex -21.4 -6 14.9
    endloop
  endfacet
  facet normal -0 0 1
    outer loop
      vertex 3.5 -3.5 14.9
      vertex 21.4 -6 14.9
      vertex 21.4 -3.5 14.9
    endloop
  endfacet
  facet normal 0 0 1
    outer loop
      vertex -6 -6 14.9
      vertex 3.5 -3.5 14.9
      vertex -4.28626e-16 -3.5 14.9
    endloop
  endfacet
  facet normal 0 0 1
    outer loop
      vertex -6 -6 14.9
      vertex -4.28626e-16 -3.5 14.9
      vertex -3.5 -3.5 14.9
    endloop
  endfacet
  facet normal 0 0 1
    outer loop
      vertex 3.5 -3.5 14.9
      vertex -6 -6 14.9
      vertex 21.4 -6 14.9
    endloop
  endfacet
  facet normal 1 0 0
    outer loop
      vertex 21.4 -3.5 14.9
      vertex 21.4 -6 14.9
      vertex 21.4 -3.5 7.5
    endloop
  endfacet
  facet normal 1 0 0
    outer loop
      vertex 21.4 3.5 7.5
      vertex 21.4 6 14.9
      vertex 21.4 3.5 14.9
    endloop
  endfacet
  facet normal 1 0 0
    outer loop
      vertex 21.4 6 14.9
      vertex 21.4 3.5 7.5
      vertex 21.4 6 -2.5
    endloop
  endfacet
  facet normal 1 -0 0
    outer loop
      vertex 21.4 -3.5 7.5
      vertex 21.4 6 -2.5
      vertex 21.4 3.5 7.5
    endloop
  endfacet
  facet normal 1 0 0
    outer loop
      vertex 21.4 -3.5 7.5
      vertex 21.4 -6 -2.5
      vertex 21.4 6 -2.5
    endloop
  endfacet
  facet normal 1 0 0
    outer loop
      vertex 21.4 -6 -2.5
      vertex 21.4 -3.5 7.5
      vertex 21.4 -6 14.9
    endloop
  endfacet
  facet normal 0 1 0
    outer loop
      vertex 21.4 6 14.9
      vertex -6 6 0
      vertex -6 6 14.9
    endloop
  endfacet
  facet normal 0 1 -0
    outer loop
      vertex 21.4 6 -2.5
      vertex -6 6 0
      vertex 21.4 6 14.9
    endloop
  endfacet
  facet normal 0 1 0
    outer loop
      vertex -21.4 6 -2.5
      vertex -6 6 0
      vertex 21.4 6 -2.5
    endloop
  endfacet
  facet normal 0 1 0
    outer loop
      vertex -6 6 0
      vertex -21.4 6 -2.5
      vertex -21.4 6 0
    endloop
  endfacet
  facet normal 0 0 -1
    outer loop
      vertex -6 -6 -2.5
      vertex 21.4 6 -2.5
      vertex 21.4 -6 -2.5
    endloop
  endfacet
  facet normal 0 0 -1
    outer loop
      vertex -21.4 6 -2.5
      vertex -6 -6 -2.5
      vertex -21.4 -6 -2.5
    endloop
  endfacet
  facet normal 0 0 -1
    outer loop
      vertex -6 -6 -2.5
      vertex -21.4 6 -2.5
      vertex 21.4 6 -2.5
    endloop
  endfacet
  facet normal 0 -1 0
    outer loop
      vertex -6 -6 0
      vertex 21.4 -6 14.9
      vertex -6 -6 14.9
    endloop
  endfacet
  facet normal 0 -1 0
    outer loop
      vertex 21.4 -6 -2.5
      vertex -6 -6 0
      vertex -6 -6 -2.5
    endloop
  endfacet
  facet normal 0 -1 0
    outer loop
      vertex -6 -6 0
      vertex 21.4 -6 -2.5
      vertex 21.4 -6 14.9
    endloop
  endfacet
  facet normal -1 0 0
    outer loop
      vertex -21.4 -6 0
      vertex -21.4 6 0
      vertex -21.4 6 -2.5
    endloop
  endfacet
  facet normal -1 0 0
    outer loop
      vertex -21.4 6 0
      vertex -21.4 3.5 7.5
      vertex -21.4 6 14.9
    endloop
  endfacet
  facet normal -1 0 0
    outer loop
      vertex -21.4 6 0
      vertex -21.4 -6 0
      vertex -21.4 3.5 7.5
    endloop
  endfacet
  facet normal -1 0 0
    outer loop
      vertex -21.4 -6 0
      vertex -21.4 6 -2.5
      vertex -21.4 -6 -2.5
    endloop
  endfacet
  facet normal -1 -0 0
    outer loop
      vertex -21.4 3.5 7.5
      vertex -21.4 -6 0
      vertex -21.4 -3.5 7.5
    endloop
  endfacet
  facet normal -1 0 0
    outer loop
      vertex -21.4 -6 14.9
      vertex -21.4 -3.5 7.5
      vertex -21.4 -6 0
    endloop
  endfacet
  facet normal -1 0 0
    outer loop
      vertex -21.4 -3.5 7.5
      vertex -21.4 -6 14.9
      vertex -21.4 -3.5 14.9
    endloop
  endfacet
  facet normal -1 -0 0
    outer loop
      vertex -21.4 6 14.9
      vertex -21.4 3.5 7.5
      vertex -21.4 3.5 14.9
    endloop
  endfacet
  facet normal 3.09635e-08 1 -0
    outer loop
      vertex -6 6 0
      vertex -21.4 6 14.9
      vertex -6 6 14.9
    endloop
  endfacet
  facet normal 3.09635e-08 1 0
    outer loop
      vertex -21.4 6 14.9
      vertex -6 6 0
      vertex -21.4 6 0
    endloop
  endfacet
  facet normal -3.09635e-08 -1 0
    outer loop
      vertex -21.4 -6 0
      vertex -6 -6 14.9
      vertex -21.4 -6 14.9
    endloop
  endfacet
  facet normal -3.09635e-08 -1 -0
    outer loop
      vertex -6 -6 14.9
      vertex -21.4 -6 0
      vertex -6 -6 0
    endloop
  endfacet
  facet normal -6.19269e-08 -1 0
    outer loop
      vertex -21.4 -6 -2.5
      vertex -6 -6 0
      vertex -21.4 -6 0
    endloop
  endfacet
  facet normal -6.19269e-08 -1 -0
    outer loop
      vertex -6 -6 0
      vertex -21.4 -6 -2.5
      vertex -6 -6 -2.5
    endloop
  endfacet
  facet normal 0 0 1
    outer loop
      vertex 19 3.5 0
      vertex 3.5 -3.5 0
      vertex 19 -3.5 0
    endloop
  endfacet
  facet normal -0 0 1
    outer loop
      vertex 4.28626e-16 3.5 0
      vertex 3.5 -3.5 0
      vertex 19 3.5 0
    endloop
  endfacet
  facet normal 0 0 1
    outer loop
      vertex 4.28626e-16 3.5 0
      vertex -4.28626e-16 -3.5 0
      vertex 3.5 -3.5 0
    endloop
  endfacet
  facet normal 0 0 1
    outer loop
      vertex 4.28626e-16 3.5 0
      vertex -3.5 -3.5 0
      vertex -4.28626e-16 -3.5 0
    endloop
  endfacet
  facet normal -0 0 1
    outer loop
      vertex -19 3.5 0
      vertex -3.5 -3.5 0
      vertex 4.28626e-16 3.5 0
    endloop
  endfacet
  facet normal 0 0 1
    outer loop
      vertex -3.5 -3.5 0
      vertex -19 3.5 0
      vertex -19 -3.5 0
    endloop
  endfacet
  facet normal -1 0 0
    outer loop
      vertex 19 -3.5 0
      vertex 19 3.5 7.5
      vertex 19 3.5 0
    endloop
  endfacet
  facet normal -1 -0 0
    outer loop
      vertex 19 3.5 7.5
      vertex 19 -3.5 0
      vertex 19 -3.5 7.5
    endloop
  endfacet
  facet normal 0 -1 0
    outer loop
      vertex 4.28626e-16 3.5 14.9
      vertex 19 3.5 7.5
      vertex 21.4 3.5 14.9
    endloop
  endfacet
  facet normal 0 -1 0
    outer loop
      vertex 4.28626e-16 3.5 0
      vertex 19 3.5 7.5
      vertex 4.28626e-16 3.5 14.9
    endloop
  endfacet
  facet normal 0 -1 -0
    outer loop
      vertex 19 3.5 7.5
      vertex 4.28626e-16 3.5 0
      vertex 19 3.5 0
    endloop
  endfacet
  facet normal 0 -1 -0
    outer loop
      vertex 21.4 3.5 14.9
      vertex 19 3.5 7.5
      vertex 21.4 3.5 7.5
    endloop
  endfacet
  facet normal 0 1 -0
    outer loop
      vertex -4.28626e-16 -3.5 0
      vertex -3.5 -3.5 14.9
      vertex -4.28626e-16 -3.5 14.9
    endloop
  endfacet
  facet normal 0 1 0
    outer loop
      vertex -3.5 -3.5 14.9
      vertex -4.28626e-16 -3.5 0
      vertex -3.5 -3.5 0
    endloop
  endfacet
  facet normal 0 1 0
    outer loop
      vertex 19 -3.5 7.5
      vertex 21.4 -3.5 14.9
      vertex 21.4 -3.5 7.5
    endloop
  endfacet
  facet normal 0 1 0
    outer loop
      vertex 21.4 -3.5 14.9
      vertex 19 -3.5 7.5
      vertex 3.5 -3.5 14.9
    endloop
  endfacet
  facet normal 0 1 0
    outer loop
      vertex 3.5 -3.5 0
      vertex 19 -3.5 7.5
      vertex 19 -3.5 0
    endloop
  endfacet
  facet normal 0 1 0
    outer loop
      vertex 19 -3.5 7.5
      vertex 3.5 -3.5 0
      vertex 3.5 -3.5 14.9
    endloop
  endfacet
  facet normal -0 0 1
    outer loop
      vertex 19 3.5 7.5
      vertex 21.4 -3.5 7.5
      vertex 21.4 3.5 7.5
    endloop
  endfacet
  facet normal 0 0 1
    outer loop
      vertex 21.4 -3.5 7.5
      vertex 19 3.5 7.5
      vertex 19 -3.5 7.5
    endloop
  endfacet
  facet normal 1 -0 0
    outer loop
      vertex -19 -3.5 7.5
      vertex -19 3.5 0
      vertex -19 3.5 7.5
    endloop
  endfacet
  facet normal 1 0 0
    outer loop
      vertex -19 3.5 0
      vertex -19 -3.5 7.5
      vertex -19 -3.5 0
    endloop
  endfacet
  facet normal 0 1 -0
    outer loop
      vertex 3.5 -3.5 0
      vertex -4.28626e-16 -3.5 14.9
      vertex 3.5 -3.5 14.9
    endloop
  endfacet
  facet normal 0 1 0
    outer loop
      vertex -4.28626e-16 -3.5 14.9
      vertex 3.5 -3.5 0
      vertex -4.28626e-16 -3.5 0
    endloop
  endfacet
  facet normal 0 1 0
    outer loop
      vertex -3.5 -3.5 14.9
      vertex -19 -3.5 7.5
      vertex -21.4 -3.5 14.9
    endloop
  endfacet
  facet normal 0 1 -0
    outer loop
      vertex -3.5 -3.5 0
      vertex -19 -3.5 7.5
      vertex -3.5 -3.5 14.9
    endloop
  endfacet
  facet normal 0 1 0
    outer loop
      vertex -19 -3.5 7.5
      vertex -3.5 -3.5 0
      vertex -19 -3.5 0
    endloop
  endfacet
  facet normal 0 1 0
    outer loop
      vertex -21.4 -3.5 14.9
      vertex -19 -3.5 7.5
      vertex -21.4 -3.5 7.5
    endloop
  endfacet
  facet normal 0 -1 0
    outer loop
      vertex -19 3.5 7.5
      vertex -21.4 3.5 14.9
      vertex -21.4 3.5 7.5
    endloop
  endfacet
  facet normal 0 -1 0
    outer loop
      vertex -21.4 3.5 14.9
      vertex -19 3.5 7.5
      vertex 4.28626e-16 3.5 14.9
    endloop
  endfacet
  facet normal 0 -1 0
    outer loop
      vertex 4.28626e-16 3.5 0
      vertex -19 3.5 7.5
      vertex -19 3.5 0
    endloop
  endfacet
  facet normal 0 -1 0
    outer loop
      vertex -19 3.5 7.5
      vertex 4.28626e-16 3.5 0
      vertex 4.28626e-16 3.5 14.9
    endloop
  endfacet
  facet normal -0 0 1
    outer loop
      vertex -21.4 3.5 7.5
      vertex -19 -3.5 7.5
      vertex -19 3.5 7.5
    endloop
  endfacet
  facet normal 0 0 1
    outer loop
      vertex -19 -3.5 7.5
      vertex -21.4 3.5 7.5
      vertex -21.4 -3.5 7.5
    endloop
  endfacet
endsolid OpenSCAD_Model
