solid OpenSCAD_Model
  facet normal -1 0 0
    outer loop
      vertex -6 -6 -2.5
      vertex -6 6 0
      vertex -6 6 -2.5
    endloop
  endfacet
  facet normal -1 0 0
    outer loop
      vertex -6 -6 14.9
      vertex -6 6 0
      vertex -6 -6 -2.5
    endloop
  endfacet
  facet normal -1 0 0
    outer loop
      vertex -6 6 0
      vertex -6 -6 14.9
      vertex -6 6 14.9
    endloop
  endfacet
  facet normal 0 0 1
    outer loop
      vertex 6 21.4 14.9
      vertex 3.5 21.4 14.9
      vertex 6 6 14.9
    endloop
  endfacet
  facet normal -0 0 1
    outer loop
      vertex 6 6 14.9
      vertex 21.4 3.5 14.9
      vertex 21.4 6 14.9
    endloop
  endfacet
  facet normal 0 0 1
    outer loop
      vertex 6 6 14.9
      vertex 3.5 3.5 14.9
      vertex 21.4 3.5 14.9
    endloop
  endfacet
  facet normal 0 0 1
    outer loop
      vertex 3.5 3.5 14.9
      vertex 6 6 14.9
      vertex 3.5 21.4 14.9
    endloop
  endfacet
  facet normal -0 0 1
    outer loop
      vertex -6 6 14.9
      vertex -3.5 3.5 14.9
      vertex -3.5 21.4 14.9
    endloop
  endfacet
  facet normal 0 0 1
    outer loop
      vertex -6 6 14.9
      vertex -3.5 21.4 14.9
      vertex -6 21.4 14.9
    endloop
  endfacet
  facet normal -0 0 1
    outer loop
      vertex 3.5 -3.5 14.9
      vertex 21.4 -6 14.9
      vertex 21.4 -3.5 14.9
    endloop
  endfacet
  facet normal 0 0 1
    outer loop
      vertex -6 -6 14.9
      vertex 3.5 -3.5 14.9
      vertex -7.77156e-16 -3.5 14.9
    endloop
  endfacet
  facet normal 0 0 1
    outer loop
      vertex -6 -6 14.9
      vertex -7.77156e-16 -3.5 14.9
      vertex -3.5 -3.5 14.9
    endloop
  endfacet
  facet normal 0 0 1
    outer loop
      vertex -3.5 3.5 14.9
      vertex -6 6 14.9
      vertex -3.5 7.77156e-16 14.9
    endloop
  endfacet
  facet normal 0 0 1
    outer loop
      vertex -6 -6 14.9
      vertex -3.5 7.77156e-16 14.9
      vertex -6 6 14.9
    endloop
  endfacet
  facet normal 0 0 1
    outer loop
      vertex 3.5 -3.5 14.9
      vertex -6 -6 14.9
      vertex 21.4 -6 14.9
    endloop
  endfacet
  facet normal 0 0 1
    outer loop
      vertex -3.5 7.77156e-16 14.9
      vertex -6 -6 14.9
      vertex -3.5 -3.5 14.9
    endloop
  endfacet
  facet normal 1 0 0
    outer loop
      vertex 21.4 -3.5 14.9
      vertex 21.4 -6 14.9
      vertex 21.4 -3.5 7.5
    endloop
  endfacet
  facet normal 1 -0 0
    outer loop
      vertex 21.4 3.5 7.5
      vertex 21.4 6 0
      vertex 21.4 6 14.9
    endloop
  endfacet
  facet normal 1 0 0
    outer loop
      vertex 21.4 3.5 7.5
      vertex 21.4 6 14.9
      vertex 21.4 3.5 14.9
    endloop
  endfacet
  facet normal 1 -0 0
    outer loop
      vertex 21.4 -3.5 7.5
      vertex 21.4 6 0
      vertex 21.4 3.5 7.5
    endloop
  endfacet
  facet normal 1 0 0
    outer loop
      vertex 21.4 -6 -2.5
      vertex 21.4 6 0
      vertex 21.4 -3.5 7.5
    endloop
  endfacet
  facet normal 1 0 0
    outer loop
      vertex 21.4 6 0
      vertex 21.4 -6 -2.5
      vertex 21.4 6 -2.5
    endloop
  endfacet
  facet normal 1 0 0
    outer loop
      vertex 21.4 -6 -2.5
      vertex 21.4 -3.5 7.5
      vertex 21.4 -6 14.9
    endloop
  endfacet
  facet normal 0 1 -0
    outer loop
      vertex 21.4 6 0
      vertex 6 6 14.9
      vertex 21.4 6 14.9
    endloop
  endfacet
  facet normal 0 1 0
    outer loop
      vertex 6 6 14.9
      vertex 21.4 6 0
      vertex 6 6 0
    endloop
  endfacet
  facet normal 0 0 -1
    outer loop
      vertex -6 6 -2.5
      vertex 21.4 6 -2.5
      vertex 21.4 -6 -2.5
    endloop
  endfacet
  facet normal 0 0 -1
    outer loop
      vertex 21.4 6 -2.5
      vertex -6 6 -2.5
      vertex 6 21.4 -2.5
    endloop
  endfacet
  facet normal 0 0 -1
    outer loop
      vertex -6 6 -2.5
      vertex 21.4 -6 -2.5
      vertex -6 -6 -2.5
    endloop
  endfacet
  facet normal -0 0 -1
    outer loop
      vertex 6 21.4 -2.5
      vertex -6 6 -2.5
      vertex -6 21.4 -2.5
    endloop
  endfacet
  facet normal 0 -1 0
    outer loop
      vertex -6 -6 -2.5
      vertex 21.4 -6 14.9
      vertex -6 -6 14.9
    endloop
  endfacet
  facet normal 0 -1 -0
    outer loop
      vertex 21.4 -6 14.9
      vertex -6 -6 -2.5
      vertex 21.4 -6 -2.5
    endloop
  endfacet
  facet normal 0 1 0
    outer loop
      vertex 6 21.4 14.9
      vertex 3.5 21.4 7.5
      vertex 3.5 21.4 14.9
    endloop
  endfacet
  facet normal 0 1 0
    outer loop
      vertex 3.5 21.4 7.5
      vertex 6 21.4 0
      vertex -3.5 21.4 7.5
    endloop
  endfacet
  facet normal 0 1 -0
    outer loop
      vertex 6 21.4 0
      vertex 3.5 21.4 7.5
      vertex 6 21.4 14.9
    endloop
  endfacet
  facet normal 0 1 -0
    outer loop
      vertex -3.5 21.4 7.5
      vertex -6 21.4 14.9
      vertex -3.5 21.4 14.9
    endloop
  endfacet
  facet normal 0 1 0
    outer loop
      vertex -3.5 21.4 7.5
      vertex -6 21.4 0
      vertex -6 21.4 14.9
    endloop
  endfacet
  facet normal 0 1 0
    outer loop
      vertex 6 21.4 0
      vertex -6 21.4 0
      vertex -3.5 21.4 7.5
    endloop
  endfacet
  facet normal 0 1 -0
    outer loop
      vertex 6 21.4 -2.5
      vertex -6 21.4 0
      vertex 6 21.4 0
    endloop
  endfacet
  facet normal 0 1 0
    outer loop
      vertex -6 21.4 0
      vertex 6 21.4 -2.5
      vertex -6 21.4 -2.5
    endloop
  endfacet
  facet normal 1 -3.09635e-08 0
    outer loop
      vertex 6 6 14.9
      vertex 6 21.4 0
      vertex 6 21.4 14.9
    endloop
  endfacet
  facet normal 1 -3.09635e-08 0
    outer loop
      vertex 6 21.4 0
      vertex 6 6 14.9
      vertex 6 6 0
    endloop
  endfacet
  facet normal -1 3.09635e-08 0
    outer loop
      vertex -6 6 0
      vertex -6 21.4 14.9
      vertex -6 21.4 0
    endloop
  endfacet
  facet normal -1 3.09635e-08 0
    outer loop
      vertex -6 21.4 14.9
      vertex -6 6 0
      vertex -6 6 14.9
    endloop
  endfacet
  facet normal 0.707107 0.707107 0
    outer loop
      vertex 21.4 6 0
      vertex 6 21.4 -2.5
      vertex 6 21.4 0
    endloop
  endfacet
  facet normal 0.707107 0.707107 0
    outer loop
      vertex 6 21.4 -2.5
      vertex 21.4 6 0
      vertex 21.4 6 -2.5
    endloop
  endfacet
  facet normal -1 6.19269e-08 0
    outer loop
      vertex -6 6 -2.5
      vertex -6 21.4 0
      vertex -6 21.4 -2.5
    endloop
  endfacet
  facet normal -1 6.19269e-08 0
    outer loop
      vertex -6 21.4 0
      vertex -6 6 -2.5
      vertex -6 6 0
    endloop
  endfacet
  facet normal 0 0 1
    outer loop
      vertex -3.5 3.5 0
      vertex 3.5 3.5 0
      vertex 3.5 19 0
    endloop
  endfacet
  facet normal 0 0 1
    outer loop
      vertex -3.5 7.77156e-16 0
      vertex 3.5 3.5 0
      vertex -3.5 3.5 0
    endloop
  endfacet
  facet normal 0 0 1
    outer loop
      vertex -3.5 3.5 0
      vertex 3.5 19 0
      vertex -3.5 19 0
    endloop
  endfacet
  facet normal 0 0 1
    outer loop
      vertex 3.5 3.5 0
      vertex -7.77156e-16 -3.5 0
      vertex 3.5 -3.5 0
    endloop
  endfacet
  facet normal 0 0 1
    outer loop
      vertex 3.5 3.5 0
      vertex -3.5 7.77156e-16 0
      vertex -7.77156e-16 -3.5 0
    endloop
  endfacet
  facet normal 0 0 1
    outer loop
      vertex -7.77156e-16 -3.5 0
      vertex -3.5 7.77156e-16 0
      vertex -3.5 -3.5 0
    endloop
  endfacet
  facet normal -0 0 1
    outer loop
      vertex 3.5 3.5 0
      vertex 19 -3.5 0
      vertex 19 3.5 0
    endloop
  endfacet
  facet normal 0 0 1
    outer loop
      vertex 19 -3.5 0
      vertex 3.5 3.5 0
      vertex 3.5 -3.5 0
    endloop
  endfacet
  facet normal 0 0 1
    outer loop
      vertex 21.4 6 0
      vertex 6 21.4 0
      vertex 6 6 0
    endloop
  endfacet
  facet normal 1 -0 0
    outer loop
      vertex -3.5 7.77156e-16 14.9
      vertex -3.5 3.5 0
      vertex -3.5 3.5 14.9
    endloop
  endfacet
  facet normal 1 0 0
    outer loop
      vertex -3.5 3.5 0
      vertex -3.5 7.77156e-16 14.9
      vertex -3.5 7.77156e-16 0
    endloop
  endfacet
  facet normal -1 0 0
    outer loop
      vertex 19 -3.5 0
      vertex 19 3.5 7.5
      vertex 19 3.5 0
    endloop
  endfacet
  facet normal -1 -0 0
    outer loop
      vertex 19 3.5 7.5
      vertex 19 -3.5 0
      vertex 19 -3.5 7.5
    endloop
  endfacet
  facet normal 0 1 -0
    outer loop
      vertex -7.77156e-16 -3.5 0
      vertex -3.5 -3.5 14.9
      vertex -7.77156e-16 -3.5 14.9
    endloop
  endfacet
  facet normal 0 1 0
    outer loop
      vertex -3.5 -3.5 14.9
      vertex -7.77156e-16 -3.5 0
      vertex -3.5 -3.5 0
    endloop
  endfacet
  facet normal 0 1 0
    outer loop
      vertex 19 -3.5 7.5
      vertex 21.4 -3.5 14.9
      vertex 21.4 -3.5 7.5
    endloop
  endfacet
  facet normal 0 1 0
    outer loop
      vertex 21.4 -3.5 14.9
      vertex 19 -3.5 7.5
      vertex 3.5 -3.5 14.9
    endloop
  endfacet
  facet normal 0 1 0
    outer loop
      vertex 3.5 -3.5 0
      vertex 19 -3.5 7.5
      vertex 19 -3.5 0
    endloop
  endfacet
  facet normal 0 1 0
    outer loop
      vertex 19 -3.5 7.5
      vertex 3.5 -3.5 0
      vertex 3.5 -3.5 14.9
    endloop
  endfacet
  facet normal 0 -1 0
    outer loop
      vertex 3.5 3.5 14.9
      vertex 19 3.5 7.5
      vertex 21.4 3.5 14.9
    endloop
  endfacet
  facet normal 0 -1 0
    outer loop
      vertex 3.5 3.5 0
      vertex 19 3.5 7.5
      vertex 3.5 3.5 14.9
    endloop
  endfacet
  facet normal 0 -1 -0
    outer loop
      vertex 19 3.5 7.5
      vertex 3.5 3.5 0
      vertex 19 3.5 0
    endloop
  endfacet
  facet normal 0 -1 -0
    outer loop
      vertex 21.4 3.5 14.9
      vertex 19 3.5 7.5
      vertex 21.4 3.5 7.5
    endloop
  endfacet
  facet normal -0 0 1
    outer loop
      vertex 19 3.5 7.5
      vertex 21.4 -3.5 7.5
      vertex 21.4 3.5 7.5
    endloop
  endfacet
  facet normal 0 0 1
    outer loop
      vertex 21.4 -3.5 7.5
      vertex 19 3.5 7.5
      vertex 19 -3.5 7.5
    endloop
  endfacet
  facet normal 0 1 -0
    outer loop
      vertex 3.5 -3.5 0
      vertex -7.77156e-16 -3.5 14.9
      vertex 3.5 -3.5 14.9
    endloop
  endfacet
  facet normal 0 1 0
    outer loop
      vertex -7.77156e-16 -3.5 14.9
      vertex 3.5 -3.5 0
      vertex -7.77156e-16 -3.5 0
    endloop
  endfacet
  facet normal 0 -1 0
    outer loop
      vertex -3.5 19 0
      vertex 3.5 19 7.5
      vertex -3.5 19 7.5
    endloop
  endfacet
  facet normal 0 -1 -0
    outer loop
      vertex 3.5 19 7.5
      vertex -3.5 19 0
      vertex 3.5 19 0
    endloop
  endfacet
  facet normal -1 0 0
    outer loop
      vertex 3.5 19 0
      vertex 3.5 3.5 0
      vertex 3.5 19 7.5
    endloop
  endfacet
  facet normal -1 0 0
    outer loop
      vertex 3.5 19 7.5
      vertex 3.5 21.4 14.9
      vertex 3.5 21.4 7.5
    endloop
  endfacet
  facet normal -1 0 0
    outer loop
      vertex 3.5 3.5 14.9
      vertex 3.5 19 7.5
      vertex 3.5 3.5 0
    endloop
  endfacet
  facet normal -1 0 0
    outer loop
      vertex 3.5 19 7.5
      vertex 3.5 3.5 14.9
      vertex 3.5 21.4 14.9
    endloop
  endfacet
  facet normal 1 -0 0
    outer loop
      vertex -3.5 -3.5 14.9
      vertex -3.5 7.77156e-16 0
      vertex -3.5 7.77156e-16 14.9
    endloop
  endfacet
  facet normal 1 0 0
    outer loop
      vertex -3.5 7.77156e-16 0
      vertex -3.5 -3.5 14.9
      vertex -3.5 -3.5 0
    endloop
  endfacet
  facet normal 1 0 0
    outer loop
      vertex -3.5 21.4 14.9
      vertex -3.5 19 7.5
      vertex -3.5 21.4 7.5
    endloop
  endfacet
  facet normal 1 -0 0
    outer loop
      vertex -3.5 3.5 14.9
      vertex -3.5 19 7.5
      vertex -3.5 21.4 14.9
    endloop
  endfacet
  facet normal 1 0 0
    outer loop
      vertex -3.5 3.5 0
      vertex -3.5 19 7.5
      vertex -3.5 3.5 14.9
    endloop
  endfacet
  facet normal 1 0 0
    outer loop
      vertex -3.5 19 7.5
      vertex -3.5 3.5 0
      vertex -3.5 19 0
    endloop
  endfacet
  facet normal -0 0 1
    outer loop
      vertex -3.5 21.4 7.5
      vertex 3.5 19 7.5
      vertex 3.5 21.4 7.5
    endloop
  endfacet
  facet normal 0 0 1
    outer loop
      vertex 3.5 19 7.5
      vertex -3.5 21.4 7.5
      vertex -3.5 19 7.5
    endloop
  endfacet
endsolid OpenSCAD_Model
